<svg width="270" height="58" viewBox="0 0 270 58" fill="none" xmlns="http://www.w3.org/2000/svg">
<path d="M7.85431 0.0443277C8.04554 0.0436549 8.23678 0.0428273 8.42802 0.0418598C8.95002 0.0396739 9.472 0.039707 9.99401 0.0401323C10.5584 0.040206 11.1227 0.0382186 11.687 0.0365169C12.7913 0.0335382 13.8956 0.0325434 14.9998 0.0323426C15.8978 0.0321715 16.7957 0.0314313 17.6937 0.0302934C20.2422 0.0271299 22.7908 0.0254693 25.3393 0.0257391C25.4765 0.0257535 25.6137 0.0257678 25.7551 0.0257826C25.8925 0.0257973 26.0299 0.025812 26.1715 0.0258272C28.3983 0.0259733 30.625 0.0225327 32.8518 0.0174651C35.1409 0.0122971 37.4299 0.00981938 39.719 0.0101297C41.0031 0.0102489 42.2871 0.00926902 43.5712 0.00539259C44.6644 0.00211347 45.7576 0.00134272 46.8508 0.00377837C47.408 0.00494898 47.9651 0.00498406 48.5223 0.00185404C49.0334 -0.000987717 49.5445 -0.00044432 50.0556 0.00267511C50.2395 0.00322375 50.4233 0.00258599 50.6072 0.000568597C52.62 -0.0200392 54.4301 0.69049 55.915 2.06947C57.5169 3.75193 58.0129 5.74104 57.9971 8.00795C57.9976 8.19659 57.9982 8.38524 57.9991 8.57388C58.0009 9.08761 57.9997 9.6013 57.9979 10.115C57.9966 10.6709 57.998 11.2267 57.9991 11.7825C58.0008 12.8695 57.9999 13.9565 57.9981 15.0435C57.9961 16.3106 57.9964 17.5778 57.9969 18.8449C57.9976 21.1064 57.9959 23.3679 57.9929 25.6294C57.9901 27.8216 57.9892 30.0137 57.9905 32.2059C57.9919 34.5959 57.9921 36.9858 57.9904 39.3758C57.9902 39.6308 57.99 39.8859 57.9898 40.1409C57.9897 40.2664 57.9896 40.3919 57.9895 40.5211C57.989 41.4034 57.9892 42.2858 57.9897 43.1681C57.9903 44.2439 57.9896 45.3196 57.9872 46.3954C57.986 46.9438 57.9854 47.4922 57.9863 48.0407C57.9872 48.5435 57.9864 49.0463 57.9842 49.5491C57.9838 49.7302 57.9839 49.9112 57.9847 50.0923C57.9937 52.344 57.4766 54.2631 55.9 55.93C54.1141 57.6517 52.2228 58.0051 49.8316 57.9974C49.644 57.9977 49.4564 57.998 49.2688 57.9985C48.7563 57.9995 48.2438 57.999 47.7313 57.9983C47.1774 57.9977 46.6236 57.9986 46.0697 57.9992C44.9859 58.0003 43.902 58.0001 42.8182 57.9994C41.9372 57.9988 41.0562 57.9988 40.1752 57.999C40.0497 57.9991 39.9242 57.9991 39.7949 57.9991C39.5399 57.9992 39.2849 57.9993 39.0299 57.9994C36.6404 58 34.2509 57.9993 31.8614 57.998C29.812 57.9969 27.7627 57.9971 25.7133 57.9982C23.332 57.9995 20.9507 58 18.5694 57.9992C18.3154 57.9992 18.0614 57.9991 17.8074 57.999C17.6824 57.999 17.5574 57.9989 17.4287 57.9989C16.5489 57.9987 15.6691 57.9991 14.7893 57.9996C13.717 58.0003 12.6446 58.0001 11.5722 57.9988C11.0253 57.9982 10.4784 57.998 9.93149 57.9987C9.43045 57.9995 8.92942 57.9991 8.42838 57.9978C8.24753 57.9975 8.06668 57.9977 7.88583 57.9982C5.57956 58.0051 3.70793 57.4962 1.97879 55.93C0.424164 54.332 0.0247997 52.6103 0.0295517 50.4609C0.0291037 50.269 0.0285519 50.077 0.0279062 49.885C0.0264429 49.3587 0.0264724 48.8325 0.0267552 48.3062C0.0268042 47.7381 0.0254804 47.17 0.0243445 46.6019C0.0223552 45.4893 0.0216954 44.3768 0.0215617 43.2642C0.0214478 42.3596 0.0209544 41.455 0.020195 40.5505C0.0180848 37.9847 0.0169792 35.4189 0.017159 32.8531C0.0171685 32.7148 0.0171784 32.5765 0.0171882 32.4341C0.017198 32.2956 0.0172074 32.1572 0.0172175 32.0145C0.0173149 29.7713 0.0150221 27.5281 0.0116427 25.2849C0.00819861 22.9805 0.00654577 20.676 0.00675272 18.3716C0.00683221 17.0783 0.00617703 15.785 0.0035951 14.4917C0.00141065 13.3904 0.000893024 12.2892 0.00251818 11.1879C0.00329949 10.6264 0.00331896 10.0649 0.00123557 9.50342C-0.000654903 8.9886 -0.000300399 8.47382 0.00178317 7.95899C0.00214981 7.77353 0.0017206 7.58807 0.000378973 7.40262C-0.0141037 5.25723 0.579783 3.61982 2.0476 2.04841C3.7215 0.444617 5.5968 0.0367327 7.85431 0.0443277Z" fill="#4EB4E1"/>
<path d="M162.593 3.21875C162.65 9.15472 162.707 15.0907 162.766 21.2065C163.28 20.6358 163.794 20.065 164.323 19.4769C167.724 16.3973 171.839 16.0072 176.257 16.1907C179.645 16.4529 182.634 17.7393 185.01 20.1904C186.463 21.9369 187.421 24.1271 187.953 26.3196C188.006 26.5218 188.006 26.5218 188.06 26.7281C188.813 29.7624 188.757 32.8195 188.745 35.9227C188.743 36.5746 188.743 37.2264 188.742 37.8783C188.741 39.1082 188.739 40.3381 188.735 41.5681C188.73 43.2332 188.729 44.8984 188.727 46.5635C188.723 49.1806 188.716 51.7976 188.71 54.4147C185.343 54.4147 181.975 54.4147 178.506 54.4147C178.499 52.0897 178.499 52.0897 178.492 49.7178C178.488 48.7278 178.483 47.7378 178.478 46.7478C178.469 45.1811 178.462 43.6145 178.459 42.0478C178.456 40.906 178.452 39.7643 178.444 38.6226C178.44 38.02 178.438 37.4174 178.438 36.8148C178.511 30.2833 178.511 30.2833 175.565 24.6657C173.495 23.3124 171.165 22.9385 168.739 23.3949C166.633 23.979 164.972 25.0451 163.804 26.9142C163.147 28.2289 162.748 29.4174 162.739 30.8909C162.736 31.2027 162.736 31.2027 162.734 31.5207C162.733 31.7473 162.732 31.9738 162.731 32.2072C162.729 32.4493 162.727 32.6914 162.726 32.9335C162.721 33.5895 162.717 34.2456 162.714 34.9016C162.71 35.5877 162.705 36.2737 162.701 36.9597C162.692 38.2583 162.684 39.5569 162.677 40.8555C162.668 42.3341 162.659 43.8127 162.649 45.2913C162.629 48.3325 162.611 51.3736 162.593 54.4147C159.226 54.4147 155.858 54.4147 152.389 54.4147C152.389 37.7484 152.389 21.082 152.389 3.91059C162.247 3.21875 162.247 3.21875 162.593 3.21875Z" fill="#FDFDFE"/>
<path d="M38.2427 27.5299C38.3963 27.5893 38.3963 27.5893 38.553 27.6498C41.8038 29.0784 43.8613 31.9371 45.1926 35.0342C45.2878 35.2927 45.3778 35.553 45.4634 35.8146C45.4988 35.9221 45.4988 35.9221 45.5349 36.0319C45.9457 37.3482 45.9923 38.6721 45.9974 40.0371C45.9982 40.1202 45.9989 40.2034 45.9997 40.289C46.0089 41.901 45.8103 43.463 45.2002 44.9744C45.1462 45.1118 45.1462 45.1118 45.0911 45.2521C44.5602 46.5718 43.9229 47.8545 43.0565 49C42.5079 48.8303 41.9777 48.6296 41.4478 48.412C41.366 48.3787 41.2843 48.3453 41.2 48.311C40.9412 48.2054 40.6826 48.0995 40.424 47.9936C40.2475 47.9215 40.0711 47.8495 39.8946 47.7775C39.4642 47.6019 39.0339 47.4259 38.6037 47.2497C38.6969 46.7537 38.8575 46.3401 39.0701 45.8787C39.9044 44.0302 40.3917 41.8086 39.6455 39.8425C39.6194 39.784 39.5934 39.7255 39.5665 39.6652C39.2396 39.6652 39.0457 39.8184 38.7732 39.9795C37.0641 40.9844 35.3053 41.2009 33.3297 40.8721C31.5866 40.3992 29.9661 39.3376 29.0452 37.8046C28.0226 35.9634 27.7357 34.1836 28.2494 32.1217C28.7955 30.4137 29.9893 28.837 31.6181 27.9648C33.7193 26.9023 36.0003 26.6585 38.2427 27.5299Z" fill="#FEFEFE"/>
<path fill-rule="evenodd" clip-rule="evenodd" d="M81.3014 20.5147L81.1284 3.21875C81.023 3.21875 80.9282 3.21875 80.8334 3.21948C79.996 3.2259 79.1589 3.28907 70.9238 3.91059V54.4147H80.6096L81.1284 50.2637L82.3391 51.3015C84.102 52.8946 86.2224 53.9778 88.5481 54.489L89.0846 54.5877C90.3396 54.8642 91.5307 54.9745 92.8167 54.9725L93.4518 54.966C94.8369 54.9653 96.1542 54.9618 97.5082 54.6546C101.588 53.5346 104.845 51.6181 107.007 47.8531C110.116 41.7148 110.526 33.4314 108.428 26.8878L108.294 26.4818C107.696 24.672 106.816 23.0608 105.729 21.497C103.623 18.6339 100.144 16.8219 96.6759 16.2657C91.8556 15.7537 86.6725 16.1099 82.6851 19.131L81.3014 20.5147ZM99.3518 33.7552C99.246 30.5785 98.4494 27.2225 96.0572 24.9798C92.5146 22.1973 86.632 22.3386 83.3764 25.4987C81.5654 27.4798 81.0178 29.5655 81.0502 32.2171C81.0534 32.4658 81.0554 32.7145 81.0562 32.9632C81.0568 33.4875 81.0583 34.0118 81.0628 34.536C81.0697 35.2117 81.0757 35.8873 81.0776 36.563C81.0792 37.2228 81.0816 37.8825 81.0853 38.5423L81.0874 38.9193C81.0886 39.1646 81.0899 39.4099 81.0913 39.6552L81.098 40.3361C81.1138 42.168 81.784 43.7717 82.8582 45.2478C84.6088 47.1724 86.7851 48.0317 89.3462 48.2368C91.8128 48.3031 94.3531 47.8386 96.1923 46.1052C98.7491 43.4802 99.3658 39.9581 99.3603 36.4087C99.357 36.0285 99.3542 35.6486 99.357 35.2685C99.3614 34.7639 99.3605 34.2597 99.3518 33.7552Z" fill="#FDFDFD"/>
<path fill-rule="evenodd" clip-rule="evenodd" d="M270 3.91059C266.601 3.6491 263.2 3.389 259.795 3.21875L259.622 20.3417C257.583 18.5288 255.636 17.3917 253.007 16.6758C248.238 15.4991 243.03 15.8989 238.759 18.3851C235.172 20.6678 233.116 24.5748 232.2 28.6328L232.122 28.9897C231.215 32.9645 231.194 37.6462 231.976 41.6468L232.122 42.3076C232.225 42.7901 232.336 43.2603 232.479 43.7325L232.641 44.2101C232.915 45.0318 233.206 45.845 233.535 46.6466C235.069 50.1739 237.821 52.5605 241.321 54.0148C245.431 55.4995 250.842 55.5959 254.88 53.7661L255.298 53.5499C255.416 53.4891 255.536 53.4277 255.658 53.3656C257.08 52.6381 258.713 51.8034 259.49 50.3961L259.622 50.0907H259.968L260.314 54.4147H270V3.91059ZM259.795 29.1626C259.228 27.4625 258.373 25.9863 256.971 24.8616C253.388 22.3619 248.007 22.2212 244.747 25.3419C242.144 28.067 241.752 31.7244 241.742 35.3312L241.742 35.735C241.734 39.0995 242.065 42.7674 244.229 45.514C245.83 47.2245 247.788 48.0449 250.116 48.2137C252.924 48.3454 255.58 47.7019 257.719 45.7667C259.359 43.866 260.006 41.924 259.947 39.4554C259.94 39.1773 259.935 38.8991 259.933 38.6209C259.93 37.8844 259.923 37.1484 259.909 36.4121C259.897 35.8053 259.889 35.1987 259.884 34.5919C259.875 33.3074 259.865 32.0229 259.843 30.7385L259.837 30.3684C259.83 29.9662 259.818 29.5641 259.795 29.1626Z" fill="#FDFDFD"/>
<path d="M19.2453 9.002C19.3369 9.00134 19.4285 9.00068 19.5229 9C21.2337 9.02125 22.7229 9.7024 23.9433 10.8911C24.0653 11.0171 24.0653 11.0171 24.1898 11.1458C24.2567 11.2117 24.3236 11.2777 24.3925 11.3456C25.5654 12.5903 26.0071 14.2808 25.9999 15.9479C25.9377 17.7782 25.1275 19.5145 23.8803 20.8435C22.2592 22.3353 20.3913 23.0341 18.2004 22.9987C16.3469 22.8748 14.871 21.994 13.5996 20.6793C12.5188 19.4373 11.9892 17.9646 12.0002 16.326C12.0008 16.2228 12.0015 16.1197 12.0022 16.0134C12.0384 14.0546 12.7955 12.4456 14.1401 11.0287C15.5852 9.65712 17.2743 9.01542 19.2453 9.002Z" fill="#FEFEFE"/>
<path fill-rule="evenodd" clip-rule="evenodd" d="M210.683 16.3047L210.255 16.3097C205.106 16.3436 199.699 16.8289 194.937 18.9582C194.878 20.3368 195.04 21.6729 195.233 23.0351C195.267 23.2749 195.3 23.5148 195.333 23.7547C195.43 24.4622 195.529 25.1695 195.629 25.8765C196.156 25.8765 196.493 25.7553 196.975 25.5602C199.602 24.497 202.447 23.7341 205.26 23.3619C208.622 23.0116 213.343 22.7017 216.168 24.9577C218.27 26.9411 218.373 29.3854 218.459 32.1031C215.734 31.1947 212.566 30.9019 209.703 30.866C205.036 30.8266 199.191 30.8434 195.592 34.3711L195.283 34.6975C194.55 35.4109 193.913 36.1225 193.377 36.9973C191.716 40.1446 191.526 43.8544 192.451 47.2803C193.209 49.8155 194.742 51.8713 197.083 53.1521L197.531 53.3771C201.416 55.3997 207.102 55.6594 211.268 54.4294L211.692 54.2959C214.307 53.487 216.46 52.4886 218.249 50.351L218.459 50.0909L218.632 50.4368L219.497 54.4148H228.664C228.668 51.2504 228.671 48.086 228.673 44.9215C228.674 43.3827 228.675 41.8438 228.676 40.3049C228.678 38.9537 228.68 37.6024 228.68 36.2512L228.68 36.0675C228.68 35.4146 228.681 34.7616 228.682 34.1086C228.683 33.4261 228.684 32.7437 228.684 32.0612L228.684 31.3041L228.686 30.592L228.685 29.9342C228.687 27.0293 227.69 24.004 225.77 21.7938L225.378 21.3796C223.596 19.4874 221.555 18.2744 219.083 17.4693L218.654 17.3367C216.065 16.5309 213.383 16.2775 210.683 16.3047ZM210.992 36.6979L210.621 36.6971C208.763 36.6814 206.939 36.7521 205.203 37.484C203.663 38.2455 202.601 39.4182 202 41.0245C201.625 42.539 201.587 44.2386 202.351 45.6363L202.546 45.9397L202.848 46.4153C204.585 48.1521 207.063 48.4121 209.407 48.5793C212.25 48.6662 214.883 47.9109 217.039 46.018L217.42 45.5937L217.695 45.3168C218.012 44.938 218.222 44.6886 218.356 44.4038C218.615 43.8552 218.595 43.1753 218.536 41.1855C218.527 40.8858 218.52 40.5861 218.515 40.2863C218.502 39.4031 218.484 38.5205 218.458 37.6376C217.949 37.383 217.58 37.1988 217.195 37.0652C216.187 36.7164 215.06 36.7124 210.992 36.6979Z" fill="#FDFDFD"/>
<path fill-rule="evenodd" clip-rule="evenodd" d="M141.626 18.3133L141.145 18.0938C136.052 15.755 129.85 15.5125 124.452 16.8621C120.532 17.9722 116.673 20.3817 114.603 23.9892L114.336 24.4933C111.512 29.5452 111.046 35.6176 112.136 41.2676C113.227 45.8215 115.559 49.5889 119.525 52.1668C125.971 56.0549 135.347 55.9387 142.51 54.3248L142.875 54.2423C144.898 53.8023 146.85 53.3432 148.755 52.5127C148.767 51.8865 148.753 51.2801 148.692 50.6564L148.604 49.973C148.556 49.5973 148.508 49.2215 148.46 48.846C148.426 48.5858 148.392 48.3256 148.359 48.0654C148.261 47.2993 148.163 46.5332 148.063 45.7673C147.535 45.6443 147.22 45.5901 146.679 45.6984C145.934 45.9127 145.187 46.1104 144.431 46.2861C138.605 47.4761 131.397 48.9462 126.031 45.5727C123.72 43.9169 122.72 41.5494 122.119 38.8489H149.101C149.101 38.1618 149.111 37.4724 149.121 36.782C149.159 34.1932 149.198 31.5906 148.702 29.0429L148.615 28.6227C148.391 27.5368 148.153 26.4759 147.738 25.4445L147.544 25.0121C146.29 22.1878 144.44 19.7161 141.626 18.3133ZM139.588 29.5088C139.043 27.2283 138.216 25.7191 136.302 24.3201C133.033 22.5023 128.565 22.5124 125.416 24.5795C122.868 26.6332 122.29 29.3489 121.773 32.4491H139.588V29.5088Z" fill="#FDFDFD"/>
</svg>
